<?xml version="1.0" encoding="UTF-8"?>
<svg width="402px" height="163px" viewBox="0 0 402 163" version="1.1" xmlns="http://www.w3.org/2000/svg" xmlns:xlink="http://www.w3.org/1999/xlink">
    <!-- Generator: Sketch 45.2 (43514) - http://www.bohemiancoding.com/sketch -->
    <title>DCEU17_logo_simplestacked_white@3x</title>
    <desc>Created with Sketch.</desc>
    <defs></defs>
    <g id="Page-1" stroke="none" stroke-width="1" fill="none" fill-rule="evenodd">
        <g id="dockercon-EU-2017-homepage" transform="translate(-35.000000, -327.000000)">
            <g id="DCEU17_logo_simplestacked_white" transform="translate(35.000000, 327.000000)">
                <g id="Layer_2">
                    <g>
                        <g id="Layer_1-2">
                            <path d="M301.441835,29.2805793 L301.441835,30.2768939 C303.860104,28.3034279 306.58685,26.7448844 309.51174,25.6643263 C312.49304,24.580483 315.642506,24.0369768 318.813272,24.0591527 C320.374107,24.0646262 321.933239,24.1632015 323.48242,24.3543571 C325.050646,24.5298672 326.593013,24.8890161 328.078038,25.4244727 C329.37985,25.8821788 330.570229,26.6116165 331.570708,27.5647041 C332.498783,28.4880907 332.998843,29.7595815 332.949394,31.0702555 C332.95388,31.7751974 332.809796,32.4731239 332.526597,33.1182355 C332.253398,33.7393359 331.873882,34.3075864 331.405266,34.7972102 C330.942589,35.2810069 330.385701,35.664102 329.769226,35.9226767 C329.129534,36.1939891 328.441607,36.332082 327.747154,36.3285826 C326.994016,36.2948309 326.255771,36.1064492 325.578022,35.7750745 C323.418337,34.9231703 321.11526,34.4971897 318.794889,34.5204561 C316.462819,34.5057954 314.153087,34.9769844 312.011757,35.9042264 C309.955242,36.7688258 308.083141,38.021496 306.497015,39.5942805 C304.933868,41.1894084 303.686325,43.0676246 302.82052,45.1293616 C301.90764,47.3008096 301.444805,49.636073 301.460217,51.9928623 L301.460217,75.0003496 C301.482814,76.3857228 300.937898,77.7196867 299.952854,78.6904037 C298.996518,79.6971734 297.661912,80.2530774 296.27636,80.2217761 C294.895141,80.2267009 293.569078,79.6781695 292.592404,78.6978925 C291.615729,77.7176155 291.069213,76.3866619 291.07412,75.0003496 L291.07412,29.2805793 C291.049308,27.8783275 291.589562,26.5254061 292.572411,25.5285114 C293.555261,24.5316168 294.897459,23.9751839 296.294742,23.9853516 C297.679865,23.9563427 299.013586,24.5118783 299.971237,25.5167241 C300.956281,26.487441 301.501196,27.821405 301.4786,29.2067782 L301.441835,29.2805793 Z M272.158554,64.3360932 C273.534996,64.2948955 274.866623,64.8295106 275.835049,65.8121149 C276.796252,66.7944957 277.320138,68.1256799 277.287265,69.502169 C277.293958,70.8809014 276.758973,72.2067253 275.798284,73.1922231 C264.874807,82.8110417 248.388616,82.2702375 238.114214,71.9560549 C232.813703,66.7344838 229.882769,59.5568955 230.007543,52.1035639 C229.882769,44.6502322 232.813703,37.472644 238.114214,32.2510728 C243.293059,27.0003907 250.34869,24.0461144 257.70993,24.0461144 C265.071171,24.0461144 272.126802,27.0003907 277.305647,32.2510728 C279.921547,34.8282108 281.991221,37.909655 283.390246,41.3101556 C284.760941,44.7470855 285.447888,48.420136 285.412318,52.1220141 C285.441508,53.5086271 284.895562,54.8451145 283.904955,55.8120682 C282.929228,56.7835685 281.602559,57.3161933 280.22846,57.2880899 L241.037027,57.2880899 C241.577812,59.091102 242.409972,60.7927247 243.500278,62.3250137 C245.644484,65.3351166 248.681063,67.5886641 252.176806,68.7641581 C253.952722,69.3690135 255.81618,69.6745008 257.691548,69.6682214 C259.732113,69.6946678 261.761153,69.3573295 263.684234,68.6719068 C265.536329,67.9838915 267.249011,66.9649939 268.739414,65.6645127 C269.691045,64.8393271 270.901139,64.3757058 272.158554,64.3545435 L272.158554,64.3360932 Z M274.382834,46.8452368 C273.835804,45.037832 272.990754,43.335261 271.882817,41.8083129 C270.803631,40.3134096 269.501612,38.9941432 268.022498,37.8968556 C266.544708,36.8076374 264.907609,35.9549491 263.169525,35.3691685 C261.394023,34.7626504 259.530286,34.4571174 257.654783,34.4651053 C255.779603,34.4611861 253.916527,34.7666107 252.140041,35.3691685 C250.390831,35.955557 248.741702,36.808053 247.250303,37.8968556 C245.763615,38.985331 244.460319,40.3058923 243.389984,41.8083129 C242.29814,43.334478 241.477237,45.0385181 240.963497,46.8452368 L274.382834,46.8452368 Z M176.514545,74.9449988 L176.514545,5.25832709 C176.496251,3.87377153 177.0405,2.54143892 178.021908,1.56827299 C178.982148,0.567228697 180.314133,0.0124162559 181.698403,0.036900541 C183.083956,0.00559926294 184.418561,0.561503278 185.374898,1.56827299 C186.354509,2.542646 186.898431,3.87417773 186.88226,5.25832709 L186.88226,44.2806492 L216.441278,24.8709646 C217.268264,24.3374015 218.234053,24.0613608 219.217031,24.077603 C219.911435,24.0746147 220.59926,24.2126872 221.239103,24.4835089 C221.855327,24.7425464 222.412127,25.1255807 222.875143,25.6089754 C223.343464,26.098838 223.722942,26.6670333 223.996474,27.2879501 C224.277251,27.9208439 224.421343,28.6062319 224.419271,29.2990295 C224.533793,30.9425875 223.780006,32.5257753 222.433964,33.4687907 L201.698534,47.1035406 L223.058968,71.347196 C223.992856,72.3457845 224.506521,73.6677316 224.492801,75.0372501 C224.494873,75.7300477 224.350781,76.4154358 224.070004,77.0483296 C223.796805,77.66943 223.417289,78.2376805 222.948673,78.7273042 C222.485996,79.2111009 221.929108,79.594196 221.312633,79.8527707 C220.67279,80.1235924 219.984965,80.261665 219.290561,80.2586767 C218.004602,80.2968042 216.758005,79.8109684 215.834656,78.9118069 L192.985242,52.8969255 L186.95579,56.9006342 L186.95579,75.0003496 C186.969855,76.3840945 186.426256,77.714835 185.448428,78.6904037 C184.498008,79.7078689 183.161167,80.2714129 181.771933,80.2402264 C180.384024,80.2644505 179.049882,79.7020441 178.095438,78.6904037 C177.117609,77.714835 176.574011,76.3840945 176.588075,75.0003496 L176.514545,74.9449988 Z M165.374767,64.3176429 C166.751209,64.2764452 168.082835,64.8110604 169.051261,65.7936646 C170.012464,66.7760454 170.53635,68.1072296 170.503477,69.4837187 C170.507552,70.9397797 169.916138,72.3337292 168.867437,73.3398252 C157.933846,82.9397413 141.442851,82.3332995 131.238514,71.9560549 C125.939837,66.7332465 123.009241,59.556485 123.131843,52.1035639 C123.019358,44.663388 125.949165,37.5018973 131.238514,32.2879734 C136.334421,26.9036755 143.435707,23.8948909 150.83423,23.9853516 C157.496574,23.8789093 163.949931,26.3193863 168.885819,30.8119517 C170.059964,31.7908512 170.734656,33.2467891 170.724066,34.7787599 C170.748633,36.1537523 170.22597,37.4818282 169.271851,38.468814 C168.312311,39.4687948 166.978125,40.0178285 165.595356,39.9817362 C164.368192,39.9927417 163.176659,39.567959 162.231364,38.7824686 C160.631739,37.4495418 158.8245,36.3898722 156.882064,35.6459226 C154.96041,34.8963665 152.914199,34.5206791 150.852613,34.5389064 C148.520542,34.5242456 146.21081,34.9954347 144.06948,35.9226767 C142.017207,36.7951952 140.146516,38.0469225 138.554738,39.6127308 C131.684413,46.496271 131.659747,57.6618949 138.49959,64.5759467 C140.091368,66.141755 141.96206,67.3934823 144.014333,68.2660008 C146.155663,69.1932428 148.465395,69.6644319 150.797465,69.6497711 C152.869945,69.7032376 154.933974,69.3652659 156.882064,68.6534565 C158.801479,67.8897511 160.574157,66.7972504 162.121069,65.4246592 C163.065575,64.7136117 164.21251,64.3255785 165.393149,64.3176429 L165.374767,64.3176429 Z M89.6389762,34.5389064 C87.2928053,34.5205652 84.9690842,34.9983392 82.8190786,35.9411269 C80.7559402,36.834839 78.8835959,38.1189929 77.3043366,39.7234324 C75.7449614,41.3216341 74.4979244,43.1990885 73.6278419,45.2585135 C71.8130764,49.6209344 71.8130764,54.5308425 73.6278419,58.8932634 C74.4979244,60.9526884 75.7449614,62.8301429 77.3043366,64.4283446 C78.883891,66.0324292 80.7561623,67.3165332 82.8190786,68.21065 C87.1622635,70.0795363 92.0789241,70.0795363 96.4221089,68.21065 C98.4869295,67.3035295 100.359054,66.0069993 101.936851,64.391444 C103.493536,62.7910541 104.740216,60.9141372 105.613346,58.8563629 C107.423017,54.5121088 107.423017,49.6212178 105.613346,45.2769638 C104.739839,43.219394 103.493203,41.3425433 101.936851,39.7418826 C100.359645,38.1256225 98.4873762,36.8289922 96.4221089,35.9226767 C94.2849469,34.9801963 91.9732616,34.5023209 89.6389762,34.5204561 L89.6389762,34.5389064 Z M117.341364,52.1404644 C117.480037,59.5855959 114.546143,66.7570771 109.234693,71.9560549 C104.056558,77.2010458 97.0048794,80.1516991 89.6481675,80.1516991 C82.2914555,80.1516991 75.2397774,77.2010458 70.0616421,71.9560549 C64.7611318,66.7344838 61.8301976,59.5568955 61.9549713,52.1035639 C61.8354964,44.6657 64.7588333,37.5037834 70.0432596,32.2879734 C75.2213949,27.0429825 82.273073,24.0923292 89.629785,24.0923292 C96.986497,24.0923292 104.038175,27.0429825 109.21631,32.2879734 C111.822594,34.8764201 113.885321,37.9631017 115.282527,41.3655065 C116.6438,44.7934946 117.342514,48.4502258 117.341364,52.1404644 L117.341364,52.1404644 Z M28.3334275,23.9853516 C34.6696376,23.9016526 40.8282944,26.086391 45.7048649,30.147742 L45.7048649,5.22142655 C45.6698708,3.84455951 46.1940715,2.51257447 47.1570803,1.53137245 C48.1255063,0.548768223 49.4571329,0.0141530793 50.8335749,0.0553508115 C52.2076738,0.0272473871 53.5343429,0.559872196 54.5100696,1.53137245 C55.5006768,2.49832624 56.0466231,3.83481356 56.0174324,5.22142655 L56.0174324,52.1404644 C56.1609179,59.5828519 53.2338416,66.7539298 47.9291441,71.9560549 C42.8064788,77.2926396 35.7161585,80.2700747 28.3334275,80.1848756 C20.9455426,80.2967594 13.8450618,77.3150576 8.73771089,71.9560549 C3.44836199,66.742131 0.518555433,59.5806403 0.631040131,52.1404644 C0.508438013,44.6875433 3.43903462,37.5107818 8.73771089,32.2879734 C13.8323187,26.9017905 20.9344649,23.8926414 28.3334275,23.9853516 Z M45.7048649,52.0666633 C45.7195731,49.7338029 45.2565656,47.4227873 44.3445618,45.2769638 C43.4699284,43.2200053 42.2234236,41.3433521 40.6680672,39.7418826 C39.0905656,38.1259753 37.2183689,36.8293952 35.1533251,35.9226767 C30.8105841,34.0516223 25.8930359,34.0516223 21.5502948,35.9226767 C19.4869337,36.8159829 17.6145164,38.100187 16.0355528,39.7049821 C14.4775281,41.3042828 13.2306707,43.1814668 12.3590581,45.2400633 C10.5463408,49.6028959 10.5463408,54.5119805 12.3590581,58.8748132 C13.2302894,60.9336161 14.4771916,62.8108674 16.0355528,64.4098943 C17.6148122,66.0143338 19.4871564,67.2984877 21.5502948,68.1921998 C25.8934797,70.061086 30.8101403,70.061086 35.1533251,68.1921998 C37.2179231,67.2846781 39.0899757,65.9881977 40.6680672,64.3729938 C42.2237548,62.7717933 43.4703032,60.8950745 44.3445618,58.8379126 C45.2565656,56.6920891 45.7195731,54.3810735 45.7048649,52.0482131 L45.7048649,52.0666633 Z" id="Shape" fill="#333333" fill-rule="nonzero"></path>
                            <path d="M238.463481,112.159194 C237.074245,108.777777 235.024079,105.710006 232.434029,103.137012 C227.290614,97.9041092 220.272344,94.958294 212.948608,94.958294 C205.624871,94.958294 198.606601,97.9041092 193.463186,103.137012 C182.708405,114.084879 182.708405,131.672724 193.463186,142.620591 C198.606601,147.853494 205.624871,150.799309 212.948608,150.799309 C220.272344,150.799309 227.290614,147.853494 232.434029,142.620591 C237.72804,137.443072 240.649453,130.296283 240.503935,122.878801 C240.507521,119.20803 239.81505,115.570109 238.463481,112.159194 Z M228.86783,129.6316 C227.996598,131.690403 226.749696,133.567655 225.191335,135.166682 C223.611781,136.770766 221.739509,138.05487 219.676593,138.948987 C215.356851,140.807607 210.466834,140.807607 206.147093,138.948987 C204.090361,138.084793 202.218187,136.832074 200.632351,135.258933 C199.070929,133.662398 197.823618,131.784532 196.955856,129.723852 C195.151304,125.384965 195.151304,120.50179 196.955856,116.162903 C197.824007,114.102433 199.071272,112.224636 200.632351,110.627822 C202.217897,109.054324 204.090144,107.801556 206.147093,106.937768 C210.466391,105.07698 215.357295,105.07698 219.676593,106.937768 C221.739954,107.831074 223.612371,109.115278 225.191335,110.720073 C226.749696,112.3191 227.996598,114.196351 228.86783,116.255154 C230.669344,120.57546 230.669344,125.440446 228.86783,129.760752 L228.86783,129.6316 Z" id="Shape" fill="#333333" fill-rule="nonzero"></path>
                            <path d="M173.885852,135.000629 C175.274622,134.958805 176.618519,135.496732 177.597479,136.486296 C178.57644,137.475861 179.102845,138.828495 179.051327,140.222056 C179.056879,141.673043 178.464817,143.061843 177.415287,144.059712 C169.181714,151.193315 157.55892,152.850959 147.671372,148.301791 C137.783824,143.752622 131.448685,133.832702 131.459103,122.915702 C131.449338,115.502526 134.377808,108.389886 139.598733,103.146244 C144.819659,97.9026018 151.904227,94.9586361 159.290168,94.9635422 C165.96868,94.8522103 172.442557,97.2773354 177.415287,101.753242 C178.585794,102.719002 179.260929,104.162344 179.253534,105.683149 C179.277332,107.061545 178.747294,108.391528 177.782936,109.373203 C176.817652,110.362578 175.485623,110.904039 174.106441,110.867675 C172.873768,110.878283 171.676576,110.453803 170.724066,109.668408 C169.142496,108.301086 167.347717,107.20404 165.411532,106.42116 C163.475229,105.680191 161.417467,105.310931 159.345315,105.332594 C157.008861,105.314872 154.693737,105.779605 152.5438,106.697914 C150.492562,107.572359 148.622209,108.82386 147.029058,110.387968 C145.460628,111.978779 144.212365,113.858078 143.352563,115.92305 C141.532677,120.290837 141.532677,125.208462 143.352563,129.57625 C144.212365,131.641221 145.460628,133.520521 147.029058,135.111331 C148.622209,136.67544 150.492562,137.92694 152.5438,138.801385 C154.693737,139.719695 157.008861,140.184427 159.345315,140.166705 C161.41588,140.189073 163.472656,139.826246 165.411532,139.096589 C167.334968,138.338038 169.113534,137.251982 170.668919,135.886242 C171.624433,135.264806 172.748166,134.955446 173.885852,135.000629 Z" id="Shape" fill="#333333" fill-rule="nonzero"></path>
                            <path d="M258.481994,99.4654082 C262.677447,96.223689 267.904148,94.6236658 273.187973,94.9635422 C276.596342,94.9503029 279.970305,95.647689 283.096126,97.0115223 C286.169217,98.330183 288.973528,100.206619 291.368239,102.546603 C293.769178,104.916478 295.691631,107.729351 297.030041,110.830775 C298.429176,114.028614 299.143139,117.485873 299.125643,120.978424 L299.125643,145.572634 C299.14824,146.958007 298.603324,148.291971 297.61828,149.262688 C296.654879,150.256949 295.323303,150.804909 293.941785,150.77561 C292.552673,150.790577 291.216106,150.243327 290.233798,149.257397 C289.25149,148.271466 288.706252,146.92997 288.721163,145.535734 L288.721163,120.996874 C288.728769,118.920254 288.302958,116.865055 287.471155,114.963635 C285.867712,111.22914 282.901432,108.25192 279.180659,106.642563 C277.286226,105.807692 275.23858,105.380311 273.16959,105.387945 C271.097497,105.37097 269.044425,105.785612 267.140139,106.605663 C263.409378,108.219066 260.440594,111.212013 258.849644,114.963635 C258.03712,116.869875 257.62414,118.92355 257.6364,120.996874 L257.6364,145.572634 C257.658997,146.958007 257.114082,148.291971 256.129038,149.262688 C255.165637,150.256949 253.834061,150.804909 252.452543,150.77561 C251.07226,150.79829 249.743198,150.251365 248.776048,149.262688 C247.729044,148.315985 247.106176,146.985846 247.048096,145.572634 L247.048096,100.387922 C247.095931,98.9265171 247.701377,97.5394241 248.739283,96.513365 C249.697635,95.5074093 251.029178,94.9460985 252.415778,94.9635422 C253.803687,94.9393181 255.137829,95.5017245 256.092273,96.513365 C256.947613,97.4479511 257.745654,98.4337777 258.481994,99.4654082 L258.481994,99.4654082 Z" id="Shape" fill="#333333" fill-rule="nonzero"></path>
                            <path d="M68.4623669,119.650004 L80.2639148,119.650004 L80.2639148,108.856596 L68.4623669,108.856596 L68.4623669,119.631554 L68.4623669,119.650004 Z M54.5100696,119.650004 L66.3116175,119.650004 L66.3116175,108.856596 L54.5100696,108.856596 L54.5100696,119.631554 L54.5100696,119.650004 Z M40.5577723,119.650004 L52.3593202,119.650004 L52.3593202,108.856596 L40.5393898,108.856596 L40.5393898,119.631554 L40.5577723,119.650004 Z M26.605475,119.650004 L38.4070229,119.650004 L38.4070229,108.856596 L26.5870925,108.856596 L26.5870925,119.631554 L26.605475,119.650004 Z M12.6531777,119.650004 L24.5282555,119.650004 L24.5282555,108.856596 L12.6347952,108.856596 L12.6347952,119.631554 L12.6531777,119.650004 Z M26.605475,106.734815 L38.4070229,106.734815 L38.4070229,95.9414066 L26.5870925,95.9414066 L26.5870925,106.716365 L26.605475,106.734815 Z M40.5577723,106.734815 L52.3593202,106.734815 L52.3593202,95.9414066 L40.5393898,95.9414066 L40.5393898,106.716365 L40.5577723,106.734815 Z M54.5100696,106.734815 L66.3116175,106.734815 L66.3116175,95.9414066 L54.5100696,95.9414066 L54.5100696,106.716365 L54.5100696,106.734815 Z M54.5100696,93.8196255 L66.3116175,93.8196255 L66.3116175,83.0262172 L54.5100696,83.0262172 L54.5100696,93.8011752 L54.5100696,93.8196255 Z M115.760471,113.376912 C113.186925,111.642587 107.249386,111.015278 102.690532,111.88244 C101.890599,107.229659 99.2352394,103.105335 95.337543,100.461723 L92.8375266,98.7827482 L91.1647215,101.291985 C88.9400586,104.885493 87.9400123,109.107654 88.3154382,113.321561 C88.5340873,115.664426 89.2890126,117.924926 90.521335,119.926758 C87.8333233,121.255621 84.8572676,121.88981 81.86319,121.771785 L4.30753481,121.771785 L4.16047502,122.675849 C2.95085179,132.757554 5.80305622,142.906607 12.083321,150.867862 C18.7193939,158.746127 28.6275471,162.749836 41.6239558,162.749836 C69.74914,162.749836 90.5580999,149.834647 100.300811,126.126049 C104.124365,126.126049 112.378096,126.126049 116.624447,118.02638 C116.734742,117.841878 116.992097,117.34372 117.727396,115.812348 L118.13181,114.963635 L115.742088,113.358462 L115.760471,113.376912 Z" id="Shape" fill="#00ACC8"></path>
                            <path d="M326.000819,144.871524 L326.000819,73.801082 C324.897871,74.1823876 323.733647,74.6128939 322.508149,75.0926009 C321.453378,75.5382673 320.324958,75.7823042 319.180921,75.8121615 C317.628157,75.8622223 316.126381,75.252597 315.044865,74.1331868 C313.171503,72.0673893 312.879534,69.0092011 314.327948,66.6239268 C315.024176,65.5973328 315.991779,64.7858934 317.122084,64.2807424 L329.805991,59.9449288 C330.435956,59.6839271 331.109809,59.5461543 331.791298,59.5390229 C333.352447,59.5033156 334.855493,60.1335706 335.927355,61.2733483 C337.010441,62.4150067 337.598718,63.94088 337.563395,65.5169105 L337.563395,144.853074 C337.587775,146.421361 336.97756,147.932552 335.872207,149.041285 C334.800345,150.181063 333.2973,150.811318 331.736151,150.77561 C330.200445,150.790486 328.72812,150.161938 327.673624,149.041285 C326.579613,147.933981 325.976561,146.430765 326.000819,144.871524 Z" id="Shape" fill="#00ACC8" fill-rule="nonzero"></path>
                            <path d="M353.445852,71.4394474 L385.743857,71.4394474 L378.574693,84.649841 L391.865221,84.649841 L400.486601,68.6903571 C401.02788,67.7113183 401.330263,66.617458 401.36896,65.4984603 C401.373765,64.6925344 401.210982,63.8944679 400.891016,63.1552759 C400.58824,62.4698463 400.164795,61.8448359 399.641007,61.3102489 C399.113889,60.7684224 398.490411,60.3303781 397.80276,60.0187299 C397.087087,59.6933153 396.308964,59.5295588 395.523333,59.5390229 L353.445852,59.5390229 C351.884703,59.5033156 350.381657,60.1335706 349.309795,61.2733483 C348.226709,62.4150067 347.638432,63.94088 347.673755,65.5169105 C347.626062,67.0950901 348.21612,68.625582 349.309795,69.7604727 C350.391311,70.8798829 351.893088,71.4895082 353.445852,71.4394474 Z" id="Shape" fill="#00ACC8" fill-rule="nonzero"></path>
                            <path d="M356.809844,124.83453 L347.967875,141.16302 C347.307673,142.281881 346.946739,143.552989 346.920074,144.853074 C346.895694,146.421361 347.505908,147.932552 348.611261,149.041285 C349.665757,150.161938 351.138082,150.790486 352.673788,150.77561 C354.258392,150.788253 355.771841,150.116116 356.828227,148.930583 C357.2687,148.477168 357.640327,147.961188 357.931175,147.399211 L370.118755,124.83453 L356.809844,124.83453 Z" id="Shape" fill="#00ACC8" fill-rule="nonzero"></path>
                            <path d="M358.831916,117.066966 C358.584186,116.832178 358.44443,116.504878 358.445885,116.162903 L358.445885,92.8971119 C358.439278,92.5487447 358.579456,92.2137561 358.831916,91.9745984 C359.071361,91.7363193 359.395478,91.6035385 359.732658,91.605593 L375.192318,91.605593 C375.536231,91.5964037 375.868715,91.7298875 376.111441,91.9745984 C376.349575,92.2068673 376.482452,92.5269487 376.479091,92.8602114 C376.486934,93.1943344 376.353339,93.5161438 376.111441,93.7458244 C375.86338,93.9801861 375.532847,94.1062519 375.192318,94.0963795 L361.019431,94.0963795 L361.019431,103.229263 L371.331998,103.229263 C371.675912,103.220074 372.008395,103.353558 372.251122,103.598269 C372.491106,103.82927 372.624333,104.150193 372.618771,104.483882 C372.626614,104.818005 372.49302,105.139814 372.251122,105.369495 C372.011678,105.607774 371.68756,105.740555 371.350381,105.7385 L361.037813,105.7385 L361.037813,114.963635 L375.2107,114.963635 C375.551229,114.953763 375.881763,115.079829 376.129824,115.314191 C376.371722,115.543871 376.505316,115.865681 376.497473,116.199804 C376.500835,116.533066 376.367957,116.853148 376.129824,117.085417 C375.887097,117.330127 375.554614,117.463611 375.2107,117.454422 L359.75104,117.454422 C359.403953,117.461053 359.070195,117.320358 358.831916,117.066966 L358.831916,117.066966 Z" id="Shape" fill="#333333" fill-rule="nonzero"></path>
                            <path d="M386.203419,116.808663 C384.699033,116.101982 383.424475,114.982631 382.526925,113.579865 C381.649397,112.177337 381.196029,110.549444 381.221769,108.893496 L381.221769,92.8971119 C381.211484,92.5515184 381.343749,92.2169834 381.587331,91.9725029 C381.830913,91.7280224 382.164219,91.5952698 382.508542,91.605593 C382.852067,91.5985672 383.183734,91.7317234 383.427666,91.9745984 C383.671478,92.2182204 383.804471,92.5519299 383.795315,92.8971119 L383.795315,108.856596 C383.777951,110.071628 384.116746,111.264991 384.769586,112.288346 C385.442206,113.307702 386.384227,114.119039 387.490192,114.631531 C388.739774,115.210637 390.102983,115.500678 391.479189,115.480243 C392.831847,115.501703 394.171374,115.211349 395.394656,114.631531 C396.486611,114.11255 397.415147,113.301871 398.078497,112.288346 C398.734359,111.26636 399.073419,110.072063 399.052768,108.856596 L399.052768,92.8971119 C399.042483,92.5515184 399.174748,92.2169834 399.41833,91.9725029 C399.661912,91.7280224 399.995218,91.5952698 400.339541,91.605593 C400.683066,91.5985672 401.014733,91.7317234 401.258665,91.9745984 C401.502477,92.2182204 401.63547,92.5519299 401.626314,92.8971119 L401.626314,108.856596 C401.651001,110.512407 401.197714,112.140005 400.321159,113.542965 C399.422084,114.94441 398.14795,116.06339 396.644664,116.771762 C395.013292,117.566161 393.218643,117.964336 391.405659,117.934129 C389.609015,117.95946 387.830132,117.574612 386.203419,116.808663 L386.203419,116.808663 Z" id="Shape" fill="#333333" fill-rule="nonzero"></path>
                        </g>
                    </g>
                </g>
            </g>
        </g>
    </g>
</svg>